<?xml version="1.0" encoding="utf-8"?>
<!-- Generator: Adobe Illustrator 26.3.1, SVG Export Plug-In . SVG Version: 6.00 Build 0)  -->
<svg version="1.1" id="Layer_1" xmlns="http://www.w3.org/2000/svg" xmlns:xlink="http://www.w3.org/1999/xlink" x="0px" y="0px"
	 viewBox="0 0 216 216" style="enable-background:new 0 0 216 216;" xml:space="preserve">
<style type="text/css">
	.st0{fill:#EFAB1E;}
</style>
<g id="n0UwFS_00000151516705929090784600000016951314822194057360_">
	<g>
		<path class="st0" d="M107.29,16.48c50.41-0.13,91.36,40.8,91.34,91.28c-0.02,50.44-40.67,91.12-91.17,91.25
			c-50.39,0.13-91.37-40.83-91.34-91.28C16.16,57.28,56.8,16.61,107.29,16.48z M131.53,107.38c0.69-6.7,1.36-13.14,2.06-19.89
			c-5.98,0-11.82,0-17.89,0c0-3.62-0.01-6.95,0.01-10.28c0.01-0.95,0.03-1.92,0.19-2.86c0.44-2.58,1.98-3.91,4.66-3.97
			c2.8-0.06,5.61-0.02,8.41-0.02c1.4,0,2.8,0,4.19,0c0-6.61,0-12.87,0-19.09c-7.48,0-14.87-0.41-22.19,0.12
			c-6.5,0.47-11.75,3.81-15.18,9.59c-2.54,4.3-3.47,9.02-3.52,13.94c-0.04,4.09-0.01,8.19-0.01,12.55c-3.75,0-7.34,0-10.97,0
			c0,6.78,0,13.29,0,19.96c3.7,0,7.23,0,10.98,0c0,18.79,0,37.42,0,56.15c7.9,0,15.57,0,23.47,0c0-18.79,0-37.42,0-56.21
			C121.09,107.38,126.2,107.38,131.53,107.38z"/>
	</g>
</g>
</svg>
