<?xml version="1.0" encoding="utf-8"?>
<!-- Generator: Adobe Illustrator 26.3.1, SVG Export Plug-In . SVG Version: 6.00 Build 0)  -->
<svg version="1.1" id="Layer_1" xmlns="http://www.w3.org/2000/svg" xmlns:xlink="http://www.w3.org/1999/xlink" x="0px" y="0px"
	 viewBox="0 0 216 216" style="enable-background:new 0 0 216 216;" xml:space="preserve">
<style type="text/css">
	.st0{fill:#EFAB1E;}
</style>
<g id="aPH9bj_00000171695176946470325800000007331794995885927336_">
	<g>
		<path class="st0" d="M16.44,113.05c0-3.79,0-7.58,0-11.37c0.26-2.16,0.48-4.33,0.79-6.49c3.56-24.22,14.76-44.16,34.02-59.27
			c20.89-16.39,44.73-22.36,70.9-18.26c20.51,3.22,37.96,12.67,51.95,28c19.15,20.99,26.89,45.82,23.37,73.97
			c-2.25,17.96-9.6,33.82-21.55,47.43c-14.07,16.04-31.66,26.03-52.69,29.82c-3.36,0.61-6.77,0.95-10.16,1.41
			c-3.79,0-7.58,0-11.37,0c-0.45-0.1-0.9-0.26-1.36-0.29c-18.12-1.44-34.42-7.65-48.71-18.87c-18.38-14.44-29.72-33.21-33.83-56.27
			C17.22,119.61,16.88,116.32,16.44,113.05z M165.99,107.36c-0.01,0-0.01,0-0.02,0c0-8.34,0.01-16.69-0.01-25.03
			c0-1.18-0.2-2.36-0.3-3.54c-1.36-15.72-11.85-27.21-27.52-29.27c-7.36-0.97-14.87-1.05-22.31-1.05c-12.36,0-24.75-0.01-37.09,0.73
			c-15.65,0.94-27.13,11.82-29.2,27.32c-0.89,6.66-1.05,13.45-1.04,20.18c0.02,13.07,0,26.17,0.73,39.21
			c0.84,15.08,10.81,26.27,25.68,28.94c6.7,1.2,13.66,1.35,20.5,1.36c13.49,0.03,26.99-0.08,40.46-0.7
			c8.81-0.41,16.46-4.06,22.31-10.96c5.56-6.56,7.56-14.39,7.78-22.71C166.16,123.7,165.99,115.53,165.99,107.36z"/>
		<path class="st0" d="M155.25,131.85c-0.11,3.37-0.75,6.87-1.9,10.04c-2.98,8.22-9.48,12.19-17.86,13.01
			c-5.99,0.59-12.05,0.72-18.08,0.73c-11.48,0.02-22.96-0.12-34.44-0.37c-2.75-0.06-5.56-0.52-8.21-1.27
			c-9.24-2.62-13.81-9.23-14.96-18.44c-0.42-3.34-0.64-6.72-0.64-10.09c0.02-14.26,0.04-28.52,0.31-42.78
			c0.13-6.86,1.95-13.21,7.49-17.93c3.56-3.04,7.76-4.59,12.3-4.95c5.89-0.46,11.81-0.71,17.72-0.72c11.6-0.02,23.2,0.11,34.79,0.38
			c2.98,0.07,6.04,0.58,8.88,1.46c8.87,2.76,13.47,9.32,14.22,18.24C155.61,91.75,155.93,124.98,155.25,131.85z M137.63,107.3
			c-0.03-16.75-13.5-30.18-30.26-30.18c-16.76,0.01-30.22,13.45-30.23,30.21c-0.01,16.82,13.5,30.31,30.35,30.27
			C124.22,137.57,137.66,124.06,137.63,107.3z M138.85,82.92c3.96,0,7.09-3.13,7.07-7.07c-0.02-3.92-3.23-7.08-7.14-7.03
			c-3.87,0.05-6.93,3.13-6.96,7.01C131.8,79.81,134.88,82.92,138.85,82.92z"/>
		<path class="st0" d="M107.4,87.76c10.9,0.01,19.6,8.74,19.59,19.63c-0.01,10.89-8.74,19.6-19.63,19.59
			c-10.89-0.01-19.61-8.75-19.59-19.63C87.78,96.45,96.51,87.74,107.4,87.76z"/>
	</g>
</g>
</svg>
