<?xml version="1.0" encoding="utf-8"?>
<!-- Generator: Adobe Illustrator 26.3.1, SVG Export Plug-In . SVG Version: 6.00 Build 0)  -->
<svg version="1.1" id="Layer_1" xmlns="http://www.w3.org/2000/svg" xmlns:xlink="http://www.w3.org/1999/xlink" x="0px" y="0px"
	 viewBox="0 0 216 216" style="enable-background:new 0 0 216 216;" xml:space="preserve">
<style type="text/css">
	.st0{fill:#EFAB1E;}
</style>
<g id="_x33_WmTnY_00000116209614124906764890000008525335264167841455_">
	<g>
		<path class="st0" d="M198.29,107.14c0.03,50.08-40.64,90.76-90.84,90.85c-50.05,0.09-90.94-40.7-90.95-90.75
			c-0.01-50.36,40.65-91.09,90.93-91.07C157.65,16.2,198.25,56.84,198.29,107.14z M156.73,76.35c-0.18-0.09-0.22-0.13-0.27-0.13
			c-0.44-0.08-0.87-0.17-1.31-0.23c-6.76-0.9-12.43-3.96-17.28-8.67c-3.73-3.63-6.65-7.84-9.04-12.44c-0.28-0.53-0.58-0.74-1.2-0.73
			c-5.59,0.03-11.19,0.02-16.78,0.02c-0.26,0-0.51,0-0.87,0c0,0.43,0,0.79,0,1.15c0,23.16,0,46.32,0,69.48
			c0,9.65-8.1,17.25-17.74,16.66c-8.74-0.54-15.58-7.72-15.69-16.45c-0.11-8.78,6.58-16.18,15.33-16.85c2.34-0.18,4.7-0.07,7.05-0.1
			c0.28,0,0.55,0,0.83,0c0-6.22,0-12.32,0-18.51c-4.12,0.05-8.2-0.21-12.24,0.47c-19.04,3.22-32.02,20.9-29.03,39.98
			c2.1,13.34,9.64,22.81,22.24,27.62c12.62,4.82,24.56,2.77,35.05-5.8c8.61-7.03,12.71-16.39,12.73-27.5
			c0.03-13.51,0.01-27.03,0.01-40.54c0-0.34,0-0.68,0-1.22c6.93,7,15.33,10.24,24.72,11.53C154.4,88.13,155.56,82.24,156.73,76.35z"
			/>
	</g>
</g>
</svg>
