<?xml version="1.0" encoding="utf-8"?>
<!-- Generator: Adobe Illustrator 26.3.1, SVG Export Plug-In . SVG Version: 6.00 Build 0)  -->
<svg version="1.1" id="Layer_1" xmlns="http://www.w3.org/2000/svg" xmlns:xlink="http://www.w3.org/1999/xlink" x="0px" y="0px"
	 viewBox="0 0 216 216" style="enable-background:new 0 0 216 216;" xml:space="preserve">
<style type="text/css">
	.st0{fill:#064459;}
</style>
<g id="UsvJo8_00000132054614318779154670000007127981930786734499_">
	<g>
		<path class="st0" d="M197.62,108.11c0.03,49.48-40.19,89.8-89.61,89.85c-49.59,0.05-89.9-40.25-89.87-89.83
			c0.03-49.51,40.2-89.79,89.52-89.76C157.37,18.39,197.59,58.52,197.62,108.11z M55.68,170.21c11.65-20.05,28.76-31.48,52.2-31.48
			c23.43,0,40.54,11.45,52.21,31.46c23.13-18.81,35.65-52.74,25.33-86.08c-10.59-34.2-42.54-57.56-78.2-57.21
			c-35.91,0.35-67.4,24.18-77.3,58.54C19.95,120.08,34.24,152.77,55.68,170.21z"/>
		<path class="st0" d="M107.85,132.4c-18.9-0.08-34.08-15.4-33.99-34.32c0.09-18.72,15.44-33.87,34.25-33.79
			c18.73,0.08,33.88,15.42,33.8,34.23C141.84,117.21,126.48,132.48,107.85,132.4z"/>
	</g>
</g>
</svg>
